<svg xmlns="http://www.w3.org/2000/svg" width="100%" height="100%" viewBox="0 0 1880.026 1027.693"><g transform="translate(-19 -26)"><g transform="translate(1805 913)"><path d="M94.427,47.144l-.019-.019L47.626,94.378l46.8-.138Z" transform="translate(-47.527 0.002)" fill="#c99" fill-rule="evenodd"/><path d="M47.3,94.27l-.019-.019L.5,141.5l46.8-.138Z" transform="translate(46.725 -94.251)" fill="#fcc" fill-rule="evenodd"/><path d="M47.772,48.177l-.019-.019L.5,95.412l47.272-.138Z" transform="translate(46.255 -2.066)" fill="#f99" fill-rule="evenodd"/><path d="M94.526.831l-.02-.02L47.847,48.158l46.68-.138Z" transform="translate(-47.847 92.535)" fill="#fcc" fill-rule="evenodd"/><path d="M47.729.923,47.711.9.5,48.158l47.228-.138Z" transform="translate(46.297 92.442)" fill="#c99" fill-rule="evenodd"/></g><g transform="translate(19 913)"><path d="M47.626,47.144l.019-.019L94.427,94.378l-46.8-.138Z" transform="translate(-0.5 0.002)" fill="#c99" fill-rule="evenodd"/><path d="M.5,94.27l.019-.019L47.3,141.5.5,141.366Z" transform="translate(-0.5 -94.251)" fill="#fcc" fill-rule="evenodd"/><path d="M.5,48.177l.019-.019L47.772,95.412.5,95.274Z" transform="translate(-0.5 -2.066)" fill="#f99" fill-rule="evenodd"/><path d="M47.847.831l.02-.02,46.66,47.347-46.68-.138Z" transform="translate(-0.5 92.535)" fill="#fcc" fill-rule="evenodd"/><path d="M.5.923.519.9l47.21,47.253L.5,48.02Z" transform="translate(-0.5 92.442)" fill="#c99" fill-rule="evenodd"/></g><g transform="translate(19 26)"><path d="M47.626,94.358l.019.019L94.427,47.125l-46.8.138Z" transform="translate(-0.5 -0.811)" fill="#c99" fill-rule="evenodd"/><path d="M.5,141.485l.019.019L47.3,94.251.5,94.389Z" transform="translate(-0.5 -0.811)" fill="#fcc" fill-rule="evenodd"/><path d="M.5,95.393l.019.019L47.772,48.159.5,48.3Z" transform="translate(-0.5 -0.811)" fill="#f99" fill-rule="evenodd"/><path d="M47.847,48.138l.02.02L94.526.811,47.847.949Z" transform="translate(-0.5 -0.811)" fill="#fcc" fill-rule="evenodd"/><path d="M.5,48.14l.018.018L47.729.9.5,1.043Z" transform="translate(-0.5 -0.811)" fill="#c99" fill-rule="evenodd"/></g><g transform="translate(1805 26)"><path d="M94.427,94.358l-.019.019L47.626,47.125l46.8.138Z" transform="translate(-47.527 -0.811)" fill="#c99" fill-rule="evenodd"/><path d="M47.3,141.485l-.019.019L.5,94.251l46.8.138Z" transform="translate(46.725 -0.811)" fill="#fcc" fill-rule="evenodd"/><path d="M47.772,95.393l-.019.019L.5,48.159l47.272.138Z" transform="translate(46.255 -0.811)" fill="#f99" fill-rule="evenodd"/><path d="M94.526,48.138l-.02.02L47.847.811l46.68.138Z" transform="translate(-47.847 -0.811)" fill="#fcc" fill-rule="evenodd"/><path d="M47.729,48.14l-.018.018L.5.9l47.228.138Z" transform="translate(46.297 -0.811)" fill="#c99" fill-rule="evenodd"/></g></g></svg>