<svg xmlns="http://www.w3.org/2000/svg" width="1535.307" height="1045.801" viewBox="0 0 1535.307 1045.801"><g transform="translate(-358.976 -193.285)"><g transform="translate(388.655 129.582)"><path d="M219.469,0C98.259,0,0,98.259,0,219.469S98.259,438.938,219.469,438.938s219.469-98.259,219.469-219.469S340.679,0,219.469,0Z" transform="translate(1066.19 586.359) rotate(-90)" fill="none" stroke="#ffd8c9" stroke-width="1" fill-rule="evenodd"/><path d="M173.96,0A173.961,173.961,0,1,0,347.921,173.961,173.961,173.961,0,0,0,173.96,0Z" transform="translate(1111.698 540.849) rotate(-90)" fill="none" stroke="#ffd8c9" stroke-width="1" fill-rule="evenodd"/><path d="M129.92,0A129.92,129.92,0,1,0,259.84,129.92,129.92,129.92,0,0,0,129.92,0Z" transform="translate(1155.74 496.81) rotate(-90)" fill="none" stroke="#ffd8c9" stroke-width="1" fill-rule="evenodd"/><path d="M84.816,0A84.814,84.814,0,1,0,169.63,84.814,84.814,84.814,0,0,0,84.816,0Z" transform="translate(1200.511 451.192) rotate(-90)" fill="none" stroke="#ffd8c9" stroke-width="1" fill-rule="evenodd"/><path d="M27.372,0A27.372,27.372,0,1,0,54.745,27.372,27.372,27.372,0,0,0,27.372,0Z" transform="translate(1258 393.796) rotate(-90)" fill="#f99" fill-rule="evenodd"/></g><g transform="translate(-122.13 -93.575)"><path d="M0,0C264.488,0,478.9,214.409,478.9,478.9S264.488,957.795,0,957.795" transform="translate(481.606 766.257) rotate(-90)" fill="none" stroke="#ffd8c9" stroke-width="1"/><path d="M0,0C209.646,0,379.6,169.95,379.6,379.592S209.646,759.187,0,759.187" transform="translate(580.911 766.257) rotate(-90)" fill="none" stroke="#ffd8c9" stroke-width="1"/><path d="M0,0C156.569,0,283.495,126.925,283.495,283.494S156.569,566.989,0,566.989" transform="translate(677.012 766.257) rotate(-90)" fill="none" stroke="#ffd8c9" stroke-width="1"/><path d="M0,0C102.21,0,185.071,82.86,185.071,185.074S102.21,370.145,0,370.145" transform="translate(775.429 766.257) rotate(-90)" fill="none" stroke="#ffd8c9" stroke-width="1"/><path d="M567.994,0H0" transform="translate(775.435 1332.66) rotate(-90)" fill="none" stroke="#ffd8c9" stroke-width="1"/><path d="M567.994,0H0" transform="translate(676.998 1332.66) rotate(-90)" fill="none" stroke="#ffd8c9" stroke-width="1"/><path d="M567.994,0H0" transform="translate(580.991 1332.66) rotate(-90)" fill="none" stroke="#ffd8c9" stroke-width="1"/><path d="M567.994,0H0" transform="translate(481.606 1332.66) rotate(-90)" fill="none" stroke="#ffd8c9" stroke-width="1"/></g></g></svg>